<svg width="240" height="214" xmlns="http://www.w3.org/2000/svg"><path d="M114.51 104.61c2.911 3.078 7.653 3.078 10.606 0l45.296-47.5c13.144-13.81 12.396-36.687-2.329-49.415-12.81-11.106-31.903-9.11-43.632 3.203l-4.659 4.866-4.617-4.825C103.445-1.414 84.354-3.41 71.542 7.695 56.86 20.423 56.07 43.3 69.213 57.109l45.297 47.501zm120.623 32.277c-4.908-4.45-12.561-4.16-17.719 0l-38.433 30.739c-4.7 3.785-10.565 5.823-16.638 5.823h-49.206c-3.66 0-6.655-2.995-6.655-6.655s2.995-6.655 6.655-6.655h32.568c6.614 0 12.77-4.534 13.851-11.064 1.373-8.32-5.033-15.557-13.144-15.557h-66.55c-11.231 0-22.087 3.868-30.822 10.94l-19.342 15.68H6.655c-3.66 0-6.655 2.995-6.655 6.656v39.93c0 3.66 2.995 6.656 6.655 6.656h148.41a26.653 26.653 0 0016.637-5.824l62.89-50.329c6.323-5.033 6.822-14.683.541-20.34z" fill="#1A72A4" fill-rule="nonzero"/></svg>